<?xml version="1.0" standalone="no"?>
<!DOCTYPE svg PUBLIC "-//W3C//DTD SVG 20010904//EN"
 "http://www.w3.org/TR/2001/REC-SVG-20010904/DTD/svg10.dtd">
<svg version="1.0" xmlns="http://www.w3.org/2000/svg"
 width="700.000000pt" height="700.000000pt" viewBox="0 0 700.000000 700.000000"
 preserveAspectRatio="xMidYMid meet">
<metadata>
Created by potrace 1.11, written by Peter Selinger 2001-2013
</metadata>
<g transform="translate(0.000000,700.000000) scale(0.100000,-0.100000)"
fill="#000000" stroke="none">
<path d="M980 6965 c-91 -19 -190 -39 -220 -45 -30 -5 -77 -14 -105 -20 -27
-6 -62 -13 -77 -15 -15 -3 -74 -15 -130 -26 -57 -11 -114 -22 -128 -25 -138
-24 -233 -87 -285 -191 l-30 -58 0 -1190 c0 -654 3 -1219 7 -1255 76 -664 441
-1250 1008 -1613 191 -123 487 -244 707 -291 21 -4 23 -10 28 -82 3 -39 7 -90
10 -115 5 -39 9 -66 31 -184 29 -164 108 -386 200 -566 51 -100 169 -287 219
-348 305 -370 598 -592 1000 -756 17 -7 44 -18 60 -25 98 -40 354 -108 473
-126 20 -3 42 -7 49 -9 74 -25 541 -26 698 -2 451 69 810 218 1153 477 531
401 866 1005 908 1641 4 52 7 454 7 894 l0 800 66 46 c163 116 278 278 337
476 22 73 27 110 28 213 1 143 -4 187 -34 285 -57 180 -186 356 -343 464 -143
98 -332 152 -512 146 -103 -3 -118 -5 -218 -31 -55 -14 -206 -79 -217 -93 -3
-3 -25 -19 -49 -35 -65 -42 -175 -156 -225 -233 -68 -107 -100 -184 -126 -305
-51 -244 10 -506 165 -708 53 -69 154 -162 213 -197 l43 -26 -4 -856 c-3 -835
-4 -858 -25 -951 -41 -179 -105 -331 -201 -475 -25 -38 -48 -72 -51 -75 -3 -3
-16 -18 -28 -35 -51 -67 -172 -184 -247 -240 -22 -17 -42 -32 -45 -35 -3 -3
-34 -24 -70 -47 -307 -191 -650 -272 -1021 -239 -71 6 -93 9 -149 21 -14 3
-34 7 -45 9 -52 10 -148 38 -206 60 -311 118 -552 304 -742 574 -84 118 -177
337 -203 477 -15 80 -21 126 -20 165 l1 42 90 23 c468 119 881 390 1187 778
117 149 202 296 301 518 19 42 84 236 91 270 2 13 12 54 20 90 9 37 18 84 21
105 3 22 7 48 9 59 16 84 20 308 21 1310 1 1227 2 1207 -50 1287 -67 101 -120
129 -330 172 -94 19 -183 37 -200 40 -16 3 -118 23 -225 45 -107 22 -206 42
-220 44 -14 3 -52 10 -85 16 -162 30 -309 -39 -371 -174 -21 -48 -69 -255 -78
-340 -14 -141 100 -297 244 -333 70 -17 132 -30 170 -37 19 -3 46 -8 60 -10
40 -8 73 -15 100 -20 14 -3 36 -7 50 -10 14 -4 32 -7 40 -9 13 -3 15 -109 16
-877 2 -780 -2 -937 -21 -1029 -2 -14 -7 -38 -11 -55 -43 -215 -187 -476 -356
-645 -506 -505 -1322 -514 -1828 -19 -114 111 -174 190 -253 329 -59 103 -123
302 -142 440 -5 30 -9 459 -10 953 l-1 898 20 4 c17 4 96 20 201 41 11 2 31 6
45 9 28 6 51 10 129 25 164 30 277 151 286 307 3 62 -49 325 -77 380 -31 61
-92 121 -153 149 -82 38 -155 37 -345 -1z m5236 -2174 c109 -50 157 -186 103
-293 -40 -78 -106 -119 -194 -120 -182 -3 -285 215 -167 352 44 53 101 80 167
80 28 0 68 -9 91 -19z"/>
</g>
</svg>
